<svg xmlns="http://www.w3.org/2000/svg" width="24" height="24" fill="none"><path fill="#324563" d="M21.71 11.32v-.11l-3-7a.782.782 0 0 0-.15-.21.76.76 0 0 0-.56-.25h-3.89a2.23 2.23 0 0 0-4.22 0H6a.756.756 0 0 0-.56.25.79.79 0 0 0-.13.19l-3 7a.791.791 0 0 0-.06.3 3.75 3.75 0 0 0 7.5.01.603.603 0 0 0 0-.18v-.11L7.14 5.25h2.75c.22.639.721 1.14 1.36 1.36v10.64H9A1.761 1.761 0 0 0 7.25 19v2a.76.76 0 0 0 .75.75h8a.76.76 0 0 0 .75-.75v-2A1.761 1.761 0 0 0 15 17.25h-2.25V6.61a2.192 2.192 0 0 0 1.36-1.36h2.75l-2.55 5.95a.791.791 0 0 0-.06.3A3.75 3.75 0 0 0 18 15.25a3.75 3.75 0 0 0 3.74-3.75.553.553 0 0 0-.03-.18Zm-1.85-.57h-3.72L18 6.4Zm-15.72 0L6 6.4l1.86 4.35Z"/></svg>